<svg xmlns="http://www.w3.org/2000/svg" width="900" height="360" viewBox="0 0 900 360">
<rect x="0" y="0" width="100%" height="100%" fill="#fff" />
<style>text{font-family:Arial,sans-serif;font-size:12px;fill:#222;} .title{font-size:16px;font-weight:bold;}</style>
<text class="title" x="60" y="40" >Stage 1 Loss (2×A800)</text>
<line x1="60" y1="300" x2="840" y2="300" stroke="#444" stroke-width="1" />
<line x1="60" y1="60" x2="60" y2="300" stroke="#444" stroke-width="1" />
<text x="450.0" y="350" text-anchor="middle">Epoch</text>
<text x="20" y="180.0" transform="rotate(-90 20,180.0)" text-anchor="middle">Loss</text>
<line x1="55" y1="300.00" x2="60" y2="300.00" stroke="#666" stroke-width="1" />
<text x="52" y="304.00" text-anchor="end">0.00</text>
<line x1="55" y1="240.00" x2="60" y2="240.00" stroke="#666" stroke-width="1" />
<text x="52" y="244.00" text-anchor="end">4.32</text>
<line x1="55" y1="180.00" x2="60" y2="180.00" stroke="#666" stroke-width="1" />
<text x="52" y="184.00" text-anchor="end">8.64</text>
<line x1="55" y1="120.00" x2="60" y2="120.00" stroke="#666" stroke-width="1" />
<text x="52" y="124.00" text-anchor="end">12.96</text>
<line x1="55" y1="60.00" x2="60" y2="60.00" stroke="#666" stroke-width="1" />
<text x="52" y="64.00" text-anchor="end">17.28</text>
<polyline fill="none" stroke="#1f77b4" stroke-width="1.5" points="60.00,60.00 60.52,158.28 61.04,208.12 61.56,229.55 62.08,244.56 62.60,255.43 63.12,263.63 63.64,269.67 64.16,274.09 64.68,277.36 65.20,279.78 65.72,281.59 66.24,283.09 66.76,284.30 67.28,285.25 67.81,286.08 68.33,286.83 68.85,287.42 69.37,287.96 69.89,288.44 70.41,288.84 70.93,289.19 71.45,289.54 71.97,289.81 72.49,290.05 73.01,290.38 73.53,290.61 74.05,290.84 74.57,291.06 75.09,291.25 75.61,291.44 76.13,291.59 76.65,291.72 77.17,291.91 77.69,292.10 78.21,292.24 78.73,292.39 79.25,292.54 79.77,292.65 80.29,292.79 80.81,292.91 81.33,292.96 81.85,293.05 82.37,293.22 82.90,293.30 83.42,293.37 83.94,293.45 84.46,293.54 84.98,293.57 85.50,293.77 86.02,293.74 86.54,293.81 87.06,293.90 87.58,293.93 88.10,293.99 88.62,294.04 89.14,294.10 89.66,294.14 90.18,294.10 90.70,294.22 91.22,294.21 91.74,294.24 92.26,294.25 92.78,294.27 93.30,294.26 93.82,294.32 94.34,294.39 94.86,294.31 95.38,294.39 95.90,294.34 96.42,294.36 96.94,294.41 97.46,294.44 97.99,294.44 98.51,294.35 99.03,294.46 99.55,294.47 100.07,294.49 100.59,294.56 101.11,294.57 101.63,294.53 102.15,294.65 102.67,294.73 103.19,294.71 103.71,294.77 104.23,294.82 104.75,294.92 105.27,294.87 105.79,294.93 106.31,294.91 106.83,294.99 107.35,294.96 107.87,295.12 108.39,295.10 108.91,295.14 109.43,295.22 109.95,295.22 110.47,295.34 110.99,295.35 111.51,295.31 112.03,295.43 112.56,295.43 113.08,295.45 113.60,295.50 114.12,295.47 114.64,295.48 115.16,295.53 115.68,295.58 116.20,295.61 116.72,295.68 117.24,295.68 117.76,295.70 118.28,295.78 118.80,295.78 119.32,295.85 119.84,295.87 120.36,295.86 120.88,295.90 121.40,295.98 121.92,295.95 122.44,295.99 122.96,296.07 123.48,296.08 124.00,296.08 124.52,296.17 125.04,296.10 125.56,296.18 126.08,296.15 126.60,296.22 127.12,296.21 127.65,296.31 128.17,296.36 128.69,296.35 129.21,296.41 129.73,296.44 130.25,296.45 130.77,296.50 131.29,296.50 131.81,296.49 132.33,296.59 132.85,296.66 133.37,296.62 133.89,296.69 134.41,296.68 134.93,296.73 135.45,296.78 135.97,296.79 136.49,296.82 137.01,296.88 137.53,296.88 138.05,296.88 138.57,296.96 139.09,296.95 139.61,297.00 140.13,297.07 140.65,297.05 141.17,297.10 141.69,297.07 142.21,297.11 142.74,297.21 143.26,297.16 143.78,297.23 144.30,297.22 144.82,297.24 145.34,297.28 145.86,297.31 146.38,297.36 146.90,297.42 147.42,297.41 147.94,297.48 148.46,297.52 148.98,297.44 149.50,297.54 150.02,297.55 150.54,297.56 151.06,297.62 151.58,297.66 152.10,297.63 152.62,297.66 153.14,297.70 153.66,297.66 154.18,297.75 154.70,297.80 155.22,297.80 155.74,297.81 156.26,297.81 156.78,297.82 157.30,297.88 157.83,297.85 158.35,297.89 158.87,297.93 159.39,297.95 159.91,297.96 160.43,297.99 160.95,298.00 161.47,298.03 161.99,298.05 162.51,298.04 163.03,298.03 163.55,298.07 164.07,298.10 164.59,298.17 165.11,298.13 165.63,298.16 166.15,298.18 166.67,298.17 167.19,298.17 167.71,298.20 168.23,298.17 168.75,298.23 169.27,298.21 169.79,298.29 170.31,298.30 170.83,298.28 171.35,298.28 171.87,298.31 172.39,298.36 172.92,298.32 173.44,298.33 173.96,298.37 174.48,298.37 175.00,298.37 175.52,298.41 176.04,298.38 176.56,298.44 177.08,298.48 177.60,298.42 178.12,298.49 178.64,298.47 179.16,298.46 179.68,298.48 180.20,298.47 180.72,298.50 181.24,298.53 181.76,298.53 182.28,298.55 182.80,298.58 183.32,298.55 183.84,298.55 184.36,298.55 184.88,298.57 185.40,298.55 185.92,298.57 186.44,298.63 186.96,298.66 187.48,298.61 188.01,298.65 188.53,298.63 189.05,298.69 189.57,298.69 190.09,298.67 190.61,298.67 191.13,298.70 191.65,298.70 192.17,298.69 192.69,298.69 193.21,298.73 193.73,298.68 194.25,298.73 194.77,298.74 195.29,298.75 195.81,298.72 196.33,298.76 196.85,298.76 197.37,298.78 197.89,298.79 198.41,298.79 198.93,298.76 199.45,298.78 199.97,298.79 200.49,298.84 201.01,298.81 201.53,298.80 202.05,298.82 202.58,298.83 203.10,298.83 203.62,298.86 204.14,298.83 204.66,298.82 205.18,298.84 205.70,298.90 206.22,298.87 206.74,298.87 207.26,298.87 207.78,298.88 208.30,298.86 208.82,298.88 209.34,298.87 209.86,298.95 210.38,298.91 210.90,298.95 211.42,298.93 211.94,298.92 212.46,298.93 212.98,298.92 213.50,298.92 214.02,298.93 214.54,298.91 215.06,298.93 215.58,298.95 216.10,298.98 216.62,298.95 217.14,298.96 217.67,299.02 218.19,298.98 218.71,299.01 219.23,298.98 219.75,299.01 220.27,299.02 220.79,299.01 221.31,298.99 221.83,299.00 222.35,299.03 222.87,299.02 223.39,298.99 223.91,299.01 224.43,298.98 224.95,299.05 225.47,299.05 225.99,299.05 226.51,299.04 227.03,299.04 227.55,299.03 228.07,299.03 228.59,299.05 229.11,299.05 229.63,298.99 230.15,299.05 230.67,299.08 231.19,299.07 231.71,299.09 232.23,299.09 232.76,299.06 233.28,299.06 233.80,299.09 234.32,299.09 234.84,299.08 235.36,299.09 235.88,299.07 236.40,299.11 236.92,299.09 237.44,299.07 237.96,299.12 238.48,299.11 239.00,299.07 239.52,299.11 240.04,299.10 240.56,299.12 241.08,299.13 241.60,299.13 242.12,299.12 242.64,299.10 243.16,299.12 243.68,299.14 244.20,299.13 244.72,299.14 245.24,299.15 245.76,299.16 246.28,299.11 246.80,299.15 247.32,299.14 247.85,299.14 248.37,299.15 248.89,299.16 249.41,299.13 249.93,299.18 250.45,299.16 250.97,299.18 251.49,299.14 252.01,299.15 252.53,299.15 253.05,299.19 253.57,299.19 254.09,299.15 254.61,299.17 255.13,299.17 255.65,299.13 256.17,299.19 256.69,299.19 257.21,299.15 257.73,299.18 258.25,299.18 258.77,299.22 259.29,299.18 259.81,299.20 260.33,299.23 260.85,299.20 261.37,299.23 261.89,299.21 262.41,299.22 262.94,299.22 263.46,299.18 263.98,299.20 264.50,299.17 265.02,299.22 265.54,299.21 266.06,299.24 266.58,299.20 267.10,299.22 267.62,299.24 268.14,299.19 268.66,299.21 269.18,299.23 269.70,299.25 270.22,299.25 270.74,299.25 271.26,299.23 271.78,299.24 272.30,299.21 272.82,299.25 273.34,299.23 273.86,299.23 274.38,299.22 274.90,299.23 275.42,299.27 275.94,299.23 276.46,299.26 276.98,299.26 277.51,299.25 278.03,299.24 278.55,299.25 279.07,299.24 279.59,299.25 280.11,299.24 280.63,299.26 281.15,299.24 281.67,299.27 282.19,299.29 282.71,299.25 283.23,299.27 283.75,299.30 284.27,299.26 284.79,299.25 285.31,299.28 285.83,299.27 286.35,299.28 286.87,299.24 287.39,299.25 287.91,299.27 288.43,299.27 288.95,299.28 289.47,299.28 289.99,299.30 290.51,299.27 291.03,299.30 291.55,299.27 292.07,299.29 292.60,299.26 293.12,299.30 293.64,299.27 294.16,299.28 294.68,299.28 295.20,299.29 295.72,299.30 296.24,299.26 296.76,299.31 297.28,299.31 297.80,299.29 298.32,299.27 298.84,299.30 299.36,299.32 299.88,299.28 300.40,299.28 300.92,299.28 301.44,299.30 301.96,299.31 302.48,299.29 303.00,299.28 303.52,299.30 304.04,299.31 304.56,299.32 305.08,299.27 305.60,299.30 306.12,299.29 306.64,299.28 307.16,299.33 307.69,299.31 308.21,299.30 308.73,299.30 309.25,299.30 309.77,299.29 310.29,299.29 310.81,299.31 311.33,299.29 311.85,299.34 312.37,299.33 312.89,299.29 313.41,299.32 313.93,299.34 314.45,299.32 314.97,299.32 315.49,299.32 316.01,299.34 316.53,299.35 317.05,299.34 317.57,299.34 318.09,299.32 318.61,299.33 319.13,299.34 319.65,299.33 320.17,299.34 320.69,299.33 321.21,299.34 321.73,299.32 322.25,299.34 322.78,299.32 323.30,299.33 323.82,299.29 324.34,299.31 324.86,299.34 325.38,299.29 325.90,299.34 326.42,299.35 326.94,299.34 327.46,299.35 327.98,299.35 328.50,299.32 329.02,299.36 329.54,299.34 330.06,299.34 330.58,299.34 331.10,299.33 331.62,299.34 332.14,299.34 332.66,299.36 333.18,299.37 333.70,299.33 334.22,299.33 334.74,299.34 335.26,299.34 335.78,299.34 336.30,299.37 336.82,299.37 337.34,299.36 337.87,299.36 338.39,299.36 338.91,299.38 339.43,299.40 339.95,299.37 340.47,299.36 340.99,299.36 341.51,299.37 342.03,299.36 342.55,299.36 343.07,299.35 343.59,299.33 344.11,299.34 344.63,299.36 345.15,299.34 345.67,299.38 346.19,299.36 346.71,299.36 347.23,299.38 347.75,299.34 348.27,299.32 348.79,299.38 349.31,299.36 349.83,299.36 350.35,299.36 350.87,299.38 351.39,299.39 351.91,299.36 352.43,299.36 352.96,299.37 353.48,299.37 354.00,299.37 354.52,299.38 355.04,299.38 355.56,299.37 356.08,299.36 356.60,299.39 357.12,299.38 357.64,299.38 358.16,299.38 358.68,299.37 359.20,299.38 359.72,299.37 360.24,299.38 360.76,299.37 361.28,299.39 361.80,299.36 362.32,299.37 362.84,299.37 363.36,299.36 363.88,299.35 364.40,299.38 364.92,299.40 365.44,299.38 365.96,299.39 366.48,299.37 367.00,299.39 367.53,299.40 368.05,299.38 368.57,299.37 369.09,299.37 369.61,299.38 370.13,299.39 370.65,299.40 371.17,299.40 371.69,299.38 372.21,299.40 372.73,299.40 373.25,299.39 373.77,299.40 374.29,299.37 374.81,299.33 375.33,299.36 375.85,299.39 376.37,299.40 376.89,299.39 377.41,299.39 377.93,299.38 378.45,299.39 378.97,299.41 379.49,299.37 380.01,299.39 380.53,299.39 381.05,299.39 381.57,299.38 382.09,299.40 382.62,299.43 383.14,299.41 383.66,299.40 384.18,299.41 384.70,299.40 385.22,299.40 385.74,299.43 386.26,299.40 386.78,299.43 387.30,299.43 387.82,299.37 388.34,299.41 388.86,299.37 389.38,299.40 389.90,299.42 390.42,299.41 390.94,299.41 391.46,299.43 391.98,299.40 392.50,299.40 393.02,299.40 393.54,299.41 394.06,299.46 394.58,299.43 395.10,299.41 395.62,299.40 396.14,299.41 396.66,299.40 397.18,299.39 397.71,299.42 398.23,299.42 398.75,299.38 399.27,299.41 399.79,299.38 400.31,299.41 400.83,299.39 401.35,299.38 401.87,299.40 402.39,299.40 402.91,299.43 403.43,299.38 403.95,299.40 404.47,299.42 404.99,299.41 405.51,299.41 406.03,299.38 406.55,299.43 407.07,299.40 407.59,299.42 408.11,299.44 408.63,299.41 409.15,299.45 409.67,299.44 410.19,299.42 410.71,299.40 411.23,299.41 411.75,299.41 412.27,299.41 412.80,299.44 413.32,299.44 413.84,299.43 414.36,299.40 414.88,299.43 415.40,299.41 415.92,299.39 416.44,299.40 416.96,299.39 417.48,299.43 418.00,299.43 418.52,299.40 419.04,299.43 419.56,299.45 420.08,299.41 420.60,299.38 421.12,299.41 421.64,299.41 422.16,299.42 422.68,299.43 423.20,299.44 423.72,299.42 424.24,299.43 424.76,299.41 425.28,299.44 425.80,299.42 426.32,299.43 426.84,299.45 427.36,299.45 427.89,299.44 428.41,299.41 428.93,299.43 429.45,299.43 429.97,299.47 430.49,299.46 431.01,299.42 431.53,299.47 432.05,299.44 432.57,299.45 433.09,299.44 433.61,299.46 434.13,299.46 434.65,299.46 435.17,299.46 435.69,299.45 436.21,299.42 436.73,299.44 437.25,299.42 437.77,299.44 438.29,299.41 438.81,299.44 439.33,299.43 439.85,299.44 440.37,299.43 440.89,299.42 441.41,299.42 441.93,299.44 442.45,299.42 442.98,299.43 443.50,299.45 444.02,299.46 444.54,299.45 445.06,299.44 445.58,299.45 446.10,299.43 446.62,299.45 447.14,299.46 447.66,299.44 448.18,299.43 448.70,299.47 449.22,299.48 449.74,299.44 450.26,299.45 450.78,299.47 451.30,299.47 451.82,299.43 452.34,299.46 452.86,299.43 453.38,299.41 453.90,299.46 454.42,299.43 454.94,299.46 455.46,299.45 455.98,299.43 456.50,299.41 457.02,299.43 457.55,299.43 458.07,299.45 458.59,299.45 459.11,299.46 459.63,299.45 460.15,299.45 460.67,299.47 461.19,299.47 461.71,299.47 462.23,299.45 462.75,299.48 463.27,299.46 463.79,299.47 464.31,299.47 464.83,299.45 465.35,299.45 465.87,299.47 466.39,299.45 466.91,299.49 467.43,299.45 467.95,299.48 468.47,299.46 468.99,299.46 469.51,299.48 470.03,299.46 470.55,299.48 471.07,299.46 471.59,299.49 472.11,299.41 472.64,299.45 473.16,299.46 473.68,299.49 474.20,299.46 474.72,299.46 475.24,299.44 475.76,299.48 476.28,299.47 476.80,299.49 477.32,299.47 477.84,299.47 478.36,299.46 478.88,299.45 479.40,299.47 479.92,299.47 480.44,299.46 480.96,299.45 481.48,299.47 482.00,299.48 482.52,299.48 483.04,299.50 483.56,299.48 484.08,299.48 484.60,299.48 485.12,299.45 485.64,299.49 486.16,299.47 486.68,299.50 487.20,299.47 487.73,299.49 488.25,299.48 488.77,299.49 489.29,299.51 489.81,299.46 490.33,299.45 490.85,299.48 491.37,299.49 491.89,299.50 492.41,299.47 492.93,299.49 493.45,299.48 493.97,299.47 494.49,299.48 495.01,299.49 495.53,299.49 496.05,299.51 496.57,299.50 497.09,299.48 497.61,299.47 498.13,299.45 498.65,299.47 499.17,299.48 499.69,299.48 500.21,299.48 500.73,299.48 501.25,299.45 501.77,299.47 502.29,299.51 502.82,299.49 503.34,299.48 503.86,299.51 504.38,299.47 504.90,299.51 505.42,299.47 505.94,299.47 506.46,299.49 506.98,299.48 507.50,299.51 508.02,299.51 508.54,299.50 509.06,299.49 509.58,299.51 510.10,299.51 510.62,299.48 511.14,299.49 511.66,299.50 512.18,299.48 512.70,299.50 513.22,299.48 513.74,299.49 514.26,299.50 514.78,299.49 515.30,299.52 515.82,299.49 516.34,299.51 516.86,299.50 517.38,299.51 517.91,299.50 518.43,299.49 518.95,299.49 519.47,299.52 519.99,299.51 520.51,299.50 521.03,299.51 521.55,299.52 522.07,299.51 522.59,299.52 523.11,299.51 523.63,299.53 524.15,299.51 524.67,299.53 525.19,299.50 525.71,299.47 526.23,299.47 526.75,299.49 527.27,299.48 527.79,299.53 528.31,299.51 528.83,299.51 529.35,299.49 529.87,299.52 530.39,299.54 530.91,299.47 531.43,299.51 531.95,299.51 532.47,299.50 533.00,299.51 533.52,299.51 534.04,299.49 534.56,299.49 535.08,299.52 535.60,299.51 536.12,299.49 536.64,299.48 537.16,299.48 537.68,299.53 538.20,299.50 538.72,299.53 539.24,299.53 539.76,299.51 540.28,299.51 540.80,299.49 541.32,299.50 541.84,299.51 542.36,299.49 542.88,299.51 543.40,299.49 543.92,299.51 544.44,299.53 544.96,299.52 545.48,299.50 546.00,299.51 546.52,299.50 547.04,299.54 547.57,299.54 548.09,299.51 548.61,299.51 549.13,299.50 549.65,299.51 550.17,299.52 550.69,299.51 551.21,299.55 551.73,299.54 552.25,299.53 552.77,299.51 553.29,299.52 553.81,299.52 554.33,299.50 554.85,299.52 555.37,299.51 555.89,299.50 556.41,299.52 556.93,299.53 557.45,299.52 557.97,299.51 558.49,299.50 559.01,299.48 559.53,299.52 560.05,299.50 560.57,299.51 561.09,299.48 561.61,299.51 562.13,299.53 562.66,299.53 563.18,299.51 563.70,299.50 564.22,299.53 564.74,299.52 565.26,299.50 565.78,299.53 566.30,299.51 566.82,299.53 567.34,299.53 567.86,299.53 568.38,299.53 568.90,299.52 569.42,299.52 569.94,299.53 570.46,299.53 570.98,299.53 571.50,299.51 572.02,299.51 572.54,299.52 573.06,299.53 573.58,299.53 574.10,299.52 574.62,299.50 575.14,299.50 575.66,299.52 576.18,299.51 576.70,299.55 577.22,299.53 577.75,299.53 578.27,299.52 578.79,299.54 579.31,299.53 579.83,299.55 580.35,299.54 580.87,299.53 581.39,299.55 581.91,299.54 582.43,299.50 582.95,299.54 583.47,299.54 583.99,299.52 584.51,299.55 585.03,299.53 585.55,299.53 586.07,299.52 586.59,299.54 587.11,299.53 587.63,299.53 588.15,299.54 588.67,299.52 589.19,299.55 589.71,299.53 590.23,299.53 590.75,299.52 591.27,299.52 591.79,299.53 592.31,299.54 592.84,299.53 593.36,299.53 593.88,299.56 594.40,299.52 594.92,299.53 595.44,299.54 595.96,299.54 596.48,299.52 597.00,299.54 597.52,299.54 598.04,299.54 598.56,299.54 599.08,299.53 599.60,299.55 600.12,299.51 600.64,299.53 601.16,299.56 601.68,299.53 602.20,299.51 602.72,299.51 603.24,299.53 603.76,299.55 604.28,299.56 604.80,299.53 605.32,299.53 605.84,299.53 606.36,299.51 606.88,299.55 607.40,299.55 607.93,299.55 608.45,299.52 608.97,299.55 609.49,299.53 610.01,299.54 610.53,299.52 611.05,299.54 611.57,299.57 612.09,299.54 612.61,299.54 613.13,299.54 613.65,148.26 614.17,266.18 614.69,298.53 615.21,296.23 615.73,299.06 616.25,299.35 616.77,299.43 617.29,299.46 617.81,299.49 618.33,299.50 618.85,299.50 619.37,299.50 619.89,299.51 620.41,299.53 620.93,299.51 621.45,299.53 621.97,299.55 622.49,299.57 623.02,299.54 623.54,299.54 624.06,299.52 624.58,299.52 625.10,299.53 625.62,299.56 626.14,299.54 626.66,299.55 627.18,299.55 627.70,299.44 628.22,299.49 628.74,299.54 629.26,299.54 629.78,299.53 630.30,299.56 630.82,299.53 631.34,299.56 631.86,299.54 632.38,299.57 632.90,299.54 633.42,299.53 633.94,299.57 634.46,299.56 634.98,299.54 635.50,299.53 636.02,299.53 636.54,299.55 637.06,299.55 637.59,299.54 638.11,299.55 638.63,299.55 639.15,299.55 639.67,299.56 640.19,299.56 640.71,299.55 641.23,299.53 641.75,299.55 642.27,299.54 642.79,299.56 643.31,299.54 643.83,299.57 644.35,299.56 644.87,299.56 645.39,299.54 645.91,299.55 646.43,299.56 646.95,299.56 647.47,299.57 647.99,299.54 648.51,299.55 649.03,299.55 649.55,299.57 650.07,299.55 650.59,299.58 651.11,299.58 651.63,299.57 652.15,299.56 652.68,299.54 653.20,208.28 653.72,271.59 654.24,295.03 654.76,295.86 655.28,297.84 655.80,298.42 656.32,298.78 656.84,298.98 657.36,299.05 657.88,299.14 658.40,299.22 658.92,299.29 659.44,299.30 659.96,299.37 660.48,299.33 661.00,299.36 661.52,299.39 662.04,299.41 662.56,299.45 663.08,299.45 663.60,299.47 664.12,299.33 664.64,299.32 665.16,299.43 665.68,299.47 666.20,299.48 666.72,299.46 667.24,299.47 667.77,299.49 668.29,299.49 668.81,299.50 669.33,299.48 669.85,299.51 670.37,296.12 670.89,296.92 671.41,290.99 671.93,294.20 672.45,297.84 672.97,298.94 673.49,299.19 674.01,299.32 674.53,299.38 675.05,299.43 675.57,299.48 676.09,299.49 676.61,299.48 677.13,299.51 677.65,299.50 678.17,299.50 678.69,299.53 679.21,299.52 679.73,299.50 680.25,299.52 680.77,299.52 681.29,299.52 681.81,299.52 682.33,299.55 682.86,299.56 683.38,299.54 683.90,299.52 684.42,299.55 684.94,299.53 685.46,299.55 685.98,299.56 686.50,299.55 687.02,299.55 687.54,299.56 688.06,299.55 688.58,299.53 689.10,299.56 689.62,299.55 690.14,299.54 690.66,299.55 691.18,299.56 691.70,299.55 692.22,299.56 692.74,299.55 693.26,299.57 693.78,299.57 694.30,299.55 694.82,299.53 695.34,298.97 695.86,298.70 696.38,299.07 696.90,299.27 697.42,299.41 697.95,299.43 698.47,299.48 698.99,299.52 699.51,299.52 700.03,299.51 700.55,299.54 701.07,299.53 701.59,299.52 702.11,299.56 702.63,299.53 703.15,299.55 703.67,299.56 704.19,299.55 704.71,299.54 705.23,299.55 705.75,299.53 706.27,299.55 706.79,299.55 707.31,299.54 707.83,299.55 708.35,299.56 708.87,299.55 709.39,299.54 709.91,299.56 710.43,299.56 710.95,299.54 711.47,299.55 711.99,299.55 712.52,299.52 713.04,299.54 713.56,299.54 714.08,299.54 714.60,299.57 715.12,299.57 715.64,299.53 716.16,299.57 716.68,299.58 717.20,299.58 717.72,299.55 718.24,299.57 718.76,299.55 719.28,299.57 719.80,299.57 720.32,299.57 720.84,299.33 721.36,299.48 721.88,299.53 722.40,299.53 722.92,299.55 723.44,299.55 723.96,299.56 724.48,299.56 725.00,299.55 725.52,299.55 726.04,299.56 726.56,299.56 727.08,299.55 727.61,299.55 728.13,299.56 728.65,299.54 729.17,299.56 729.69,299.49 730.21,299.48 730.73,299.51 731.25,299.55 731.77,299.57 732.29,299.55 732.81,299.57 733.33,299.54 733.85,299.55 734.37,299.58 734.89,299.59 735.41,299.58 735.93,299.52 736.45,299.55 736.97,299.56 737.49,299.56 738.01,299.55 738.53,299.57 739.05,299.56 739.57,299.58 740.09,299.56 740.61,299.57 741.13,299.57 741.65,299.46 742.17,299.44 742.70,299.54 743.22,299.54 743.74,299.54 744.26,299.56 744.78,299.57 745.30,299.57 745.82,299.58 746.34,299.57 746.86,299.58 747.38,299.57 747.90,299.57 748.42,299.58 748.94,299.54 749.46,299.57 749.98,299.57 750.50,299.56 751.02,299.59 751.54,299.58 752.06,299.57 752.58,299.56 753.10,299.56 753.62,299.57 754.14,299.59 754.66,299.57 755.18,299.59 755.70,299.57 756.22,299.60 756.74,299.56 757.26,299.58 757.79,299.60 758.31,299.58 758.83,299.57 759.35,299.56 759.87,299.56 760.39,299.57 760.91,299.56 761.43,299.56 761.95,299.58 762.47,299.57 762.99,299.57 763.51,299.58 764.03,299.58 764.55,299.57 765.07,299.59 765.59,299.58 766.11,299.58 766.63,299.59 767.15,299.58 767.67,299.57 768.19,299.57 768.71,299.57 769.23,299.59 769.75,299.57 770.27,299.58 770.79,299.59 771.31,299.58 771.83,299.58 772.35,299.59 772.88,299.58 773.40,299.56 773.92,299.60 774.44,299.55 774.96,297.81 775.48,298.77 776.00,299.30 776.52,299.42 777.04,299.50 777.56,299.55 778.08,299.54 778.60,299.56 779.12,299.54 779.64,299.56 780.16,299.55 780.68,299.57 781.20,299.54 781.72,299.56 782.24,299.58 782.76,299.58 783.28,299.54 783.80,299.57 784.32,299.58 784.84,299.58 785.36,299.57 785.88,299.58 786.40,299.58 786.92,299.59 787.44,299.56 787.97,299.58 788.49,299.58 789.01,299.57 789.53,299.59 790.05,299.60 790.57,299.57 791.09,299.55 791.61,299.57 792.13,299.57 792.65,299.56 793.17,299.57 793.69,299.56 794.21,299.60 794.73,299.59 795.25,299.58 795.77,299.60 796.29,299.55 796.81,299.59 797.33,299.61 797.85,299.55 798.37,299.58 798.89,299.60 799.41,299.61 799.93,299.60 800.45,299.59 800.97,299.59 801.49,299.61 802.01,299.59 802.54,299.56 803.06,299.58 803.58,299.59 804.10,299.58 804.62,299.58 805.14,299.58 805.66,299.57 806.18,299.58 806.70,299.56 807.22,299.59 807.74,299.60 808.26,299.58 808.78,298.52 809.30,298.75 809.82,299.29 810.34,299.52 810.86,299.52 811.38,299.55 811.90,299.55 812.42,299.57 812.94,299.55 813.46,299.58 813.98,299.57 814.50,299.58 815.02,299.58 815.54,299.57 816.06,299.58 816.58,299.60 817.10,299.59 817.63,299.60 818.15,299.56 818.67,299.57 819.19,299.58 819.71,299.49 820.23,299.55 820.75,299.60 821.27,299.57 821.79,299.59 822.31,299.57 822.83,299.57 823.35,299.59 823.87,299.61 824.39,299.59 824.91,299.58 825.43,299.57 825.95,299.60 826.47,299.59 826.99,299.61 827.51,299.59 828.03,299.58 828.55,299.58 829.07,299.59 829.59,299.59 830.11,299.58 830.63,299.60 831.15,299.60 831.67,299.60 832.19,299.60 832.72,299.58 833.24,299.57 833.76,299.58 834.28,299.58 834.80,299.58 835.32,299.60 835.84,299.57 836.36,299.59 836.88,299.62 837.40,299.61 837.92,299.59 838.44,299.57 838.96,299.58 839.48,299.59 840.00,299.57" />
<circle cx="72.49" cy="292.28" r="3" fill="#d62728" />
<circle cx="85.50" cy="294.96" r="3" fill="#d62728" />
<circle cx="98.51" cy="295.40" r="3" fill="#d62728" />
<circle cx="111.51" cy="296.02" r="3" fill="#d62728" />
<circle cx="124.52" cy="296.91" r="3" fill="#d62728" />
<circle cx="137.53" cy="297.63" r="3" fill="#d62728" />
<circle cx="150.54" cy="298.08" r="3" fill="#d62728" />
<circle cx="163.55" cy="298.66" r="3" fill="#d62728" />
<circle cx="176.56" cy="298.92" r="3" fill="#d62728" />
<circle cx="189.57" cy="298.88" r="3" fill="#d62728" />
<circle cx="202.58" cy="299.23" r="3" fill="#d62728" />
<circle cx="215.58" cy="299.30" r="3" fill="#d62728" />
<circle cx="228.59" cy="299.35" r="3" fill="#d62728" />
<circle cx="241.60" cy="299.23" r="3" fill="#d62728" />
<circle cx="254.61" cy="299.41" r="3" fill="#d62728" />
<circle cx="267.62" cy="299.33" r="3" fill="#d62728" />
<circle cx="280.63" cy="299.42" r="3" fill="#d62728" />
<circle cx="293.64" cy="299.45" r="3" fill="#d62728" />
<circle cx="306.64" cy="299.40" r="3" fill="#d62728" />
<circle cx="319.65" cy="299.33" r="3" fill="#d62728" />
<circle cx="332.66" cy="299.43" r="3" fill="#d62728" />
<circle cx="345.67" cy="299.53" r="3" fill="#d62728" />
<circle cx="358.68" cy="299.43" r="3" fill="#d62728" />
<circle cx="371.69" cy="299.45" r="3" fill="#d62728" />
<circle cx="384.70" cy="299.39" r="3" fill="#d62728" />
<circle cx="397.71" cy="299.39" r="3" fill="#d62728" />
<circle cx="410.71" cy="299.31" r="3" fill="#d62728" />
<circle cx="423.72" cy="299.40" r="3" fill="#d62728" />
<circle cx="436.73" cy="299.55" r="3" fill="#d62728" />
<circle cx="449.74" cy="299.54" r="3" fill="#d62728" />
<circle cx="462.75" cy="299.38" r="3" fill="#d62728" />
<circle cx="475.76" cy="299.59" r="3" fill="#d62728" />
<circle cx="488.77" cy="299.33" r="3" fill="#d62728" />
<circle cx="501.77" cy="299.41" r="3" fill="#d62728" />
<circle cx="514.78" cy="299.53" r="3" fill="#d62728" />
<circle cx="527.79" cy="299.52" r="3" fill="#d62728" />
<circle cx="540.80" cy="299.61" r="3" fill="#d62728" />
<circle cx="553.81" cy="299.53" r="3" fill="#d62728" />
<circle cx="566.82" cy="299.49" r="3" fill="#d62728" />
<circle cx="579.83" cy="299.50" r="3" fill="#d62728" />
<circle cx="592.84" cy="299.56" r="3" fill="#d62728" />
<circle cx="605.84" cy="299.48" r="3" fill="#d62728" />
<circle cx="618.85" cy="299.51" r="3" fill="#d62728" />
<circle cx="631.86" cy="299.57" r="3" fill="#d62728" />
<circle cx="644.87" cy="299.54" r="3" fill="#d62728" />
<circle cx="657.88" cy="299.41" r="3" fill="#d62728" />
<circle cx="670.89" cy="297.99" r="3" fill="#d62728" />
<circle cx="683.90" cy="299.48" r="3" fill="#d62728" />
<circle cx="696.90" cy="299.42" r="3" fill="#d62728" />
<circle cx="709.91" cy="299.51" r="3" fill="#d62728" />
<circle cx="722.92" cy="299.47" r="3" fill="#d62728" />
<circle cx="735.93" cy="299.39" r="3" fill="#d62728" />
<circle cx="748.94" cy="299.41" r="3" fill="#d62728" />
<circle cx="761.95" cy="299.41" r="3" fill="#d62728" />
<circle cx="774.96" cy="298.17" r="3" fill="#d62728" />
<circle cx="787.97" cy="299.45" r="3" fill="#d62728" />
<circle cx="800.97" cy="299.54" r="3" fill="#d62728" />
<circle cx="813.98" cy="299.55" r="3" fill="#d62728" />
<circle cx="826.99" cy="299.56" r="3" fill="#d62728" />
<circle cx="840.00" cy="299.21" r="3" fill="#d62728" />
<rect x="690" y="50" width="18" height="4" fill="#1f77b4" />
<text x="714" y="55" >Train avg_loss</text>
<rect x="690" y="68" width="18" height="4" fill="#d62728" />
<text x="714" y="73" >Val loss</text>
</svg>
