<svg xmlns="http://www.w3.org/2000/svg" width="900" height="360" viewBox="0 0 900 360">
<rect x="0" y="0" width="100%" height="100%" fill="#fff" />
<style>text{font-family:Arial,sans-serif;font-size:12px;fill:#222;} .title{font-size:16px;font-weight:bold;}</style>
<text class="title" x="60" y="40" >Stage 2 Loss (4×A800)</text>
<line x1="60" y1="300" x2="840" y2="300" stroke="#444" stroke-width="1" />
<line x1="60" y1="60" x2="60" y2="300" stroke="#444" stroke-width="1" />
<text x="450.0" y="350" text-anchor="middle">Epoch</text>
<text x="20" y="180.0" transform="rotate(-90 20,180.0)" text-anchor="middle">Avg loss</text>
<line x1="55" y1="300.00" x2="60" y2="300.00" stroke="#666" stroke-width="1" />
<text x="52" y="304.00" text-anchor="end">0.00</text>
<line x1="55" y1="240.00" x2="60" y2="240.00" stroke="#666" stroke-width="1" />
<text x="52" y="244.00" text-anchor="end">0.42</text>
<line x1="55" y1="180.00" x2="60" y2="180.00" stroke="#666" stroke-width="1" />
<text x="52" y="184.00" text-anchor="end">0.84</text>
<line x1="55" y1="120.00" x2="60" y2="120.00" stroke="#666" stroke-width="1" />
<text x="52" y="124.00" text-anchor="end">1.26</text>
<line x1="55" y1="60.00" x2="60" y2="60.00" stroke="#666" stroke-width="1" />
<text x="52" y="64.00" text-anchor="end">1.68</text>
<polyline fill="none" stroke="#1f77b4" stroke-width="1.5" points="60.00,60.00 70.40,136.15 80.80,139.01 91.20,139.70 101.60,140.99 112.00,141.59 122.40,141.77 132.80,142.29 143.20,142.07 153.60,142.52 164.00,142.73 174.40,143.02 184.80,142.74 195.20,142.82 205.60,143.40 216.00,143.52 226.40,143.47 236.80,143.67 247.20,143.66 257.60,143.46 268.00,144.15 278.40,143.85 288.80,143.47 299.20,144.25 309.60,144.30 320.00,144.32 330.40,144.36 340.80,144.50 351.20,144.63 361.60,144.45 372.00,144.63 382.40,144.57 392.80,144.47 403.20,144.85 413.60,144.99 424.00,144.96 434.40,144.80 444.80,144.80" />
<polyline fill="none" stroke="#ff7f0e" stroke-width="1.5" points="455.20,144.95 465.60,145.02 476.00,144.92 486.40,145.10 496.80,145.28 507.20,145.36 517.60,145.25 528.00,145.59 538.40,145.29 548.80,145.36 559.20,145.53 569.60,145.15 580.00,145.48 590.40,145.05 600.80,145.63 611.20,145.78 621.60,145.73 632.00,145.66 642.40,145.13 652.80,145.72 663.20,145.89 673.60,144.93 684.00,145.82 694.40,145.65 704.80,146.09 715.20,145.96 725.60,145.89 736.00,145.99 746.40,146.02 756.80,146.10 767.20,146.19 777.60,146.16 788.00,146.16 798.40,146.13 808.80,146.26 819.20,145.38 829.60,146.30 840.00,146.30" />
<rect x="690" y="50" width="18" height="4" fill="#1f77b4" />
<text x="714" y="55" >muq_mulan-stage2-1</text>
<rect x="690" y="68" width="18" height="4" fill="#ff7f0e" />
<text x="714" y="73" >muq_mulan-stage2-2</text>
</svg>
